# xmcd
#
# Track frame offsets:
#	150
#	27313
#	55661
#	83243
#	111643
#	137398
#	164459
#	193432
#	220527
#	249712
#	277179
#	302521
#	330121
#
# Disc length: 4750 seconds
#
# Revision: 1
# Processed by: cddbd v1.5PL3 Copyright (c) Steve Scherf et al.
# Submitted via: audiograbber 1.81.02
#
DISCID=b8128c0d
DTITLE=Arianna Huffington - Pigs at the Trough 3of5
DYEAR=2003
DGENRE=Speech
TTITLE0=Disk3Track01
TTITLE1=Disk3Track02
TTITLE2=Disk3Track03
TTITLE3=Disk3Track04
TTITLE4=Disk3Track05
TTITLE5=Disk3Track06
TTITLE6=Disk3Track07
TTITLE7=Disk3Track08
TTITLE8=Disk3Track09
TTITLE9=Disk3Track10
TTITLE10=Disk3Track11
TTITLE11=Disk3Track12
TTITLE12=Disk3Track13
EXTD=
EXTT0=
EXTT1=
EXTT2=
EXTT3=
EXTT4=
EXTT5=
EXTT6=
EXTT7=
EXTT8=
EXTT9=
EXTT10=
EXTT11=
EXTT12=
PLAYORDER=
